<svg xmlns="http://www.w3.org/2000/svg" width="316" height="128" viewBox="0 0 316 128" fill="none">
    <g opacity="0.2">
        <mask id="path-1-outside-1_3448_25977" maskUnits="userSpaceOnUse" x="-12" y="-19" width="340" height="147" fill="black">
            <rect fill="white" x="-12" y="-19" width="340" height="147"/>
            <path d="M42.32 30C42.32 23.664 40.88 18.576 37.232 15.024C34.352 12.144 29.936 10.224 23.792 9.36L15.536 8.208C13.136 7.92001 11.696 7.05601 10.832 6.19201C9.776 5.13601 9.488 3.888 9.488 3.024C9.488 0.0480022 11.888 -3.31199 17.744 -3.31199C20.72 -3.31199 26.384 -3.6 30.704 0.720005L41.264 -9.84C35.408 -15.696 28.016 -18 18.224 -18C2.672 -18 -6.736 -8.88 -6.736 3.6C-6.736 9.45601 -5.2 14.064 -2.032 17.328C1.04 20.496 5.648 22.512 11.696 23.376L19.952 24.528C22.16 24.816 23.6 25.488 24.464 26.352C25.424 27.408 25.808 28.752 25.808 30.384C25.808 34.32 22.64 36.528 16.016 36.528C10.544 36.528 4.304 35.28 0.752001 31.728L-10 42.48C-3.088 49.584 5.456 51.504 15.92 51.504C30.32 51.504 42.32 43.92 42.32 30Z"/>
            <path d="M106.042 16.752C106.042 6.48 106.33 -3.12 99.1303 -10.32C94.1383 -15.312 88.3783 -18 80.0263 -18C71.6743 -18 65.9142 -15.312 60.9222 -10.32C53.7222 -3.12 54.0102 6.48 54.0102 16.752C54.0102 27.024 53.7222 36.624 60.9222 43.824C65.9142 48.816 71.6743 51.504 80.0263 51.504C88.3783 51.504 94.1383 48.816 99.1303 43.824C106.33 36.624 106.042 27.024 106.042 16.752ZM89.2422 16.752C89.2422 29.232 88.2822 31.44 86.7462 33.456C85.4982 35.088 83.0983 36.528 80.0263 36.528C76.9543 36.528 74.5543 35.088 73.3063 33.456C71.7703 31.44 70.8102 29.232 70.8102 16.752C70.8102 4.272 71.7703 1.968 73.3063 -0.0479965C74.5543 -1.68 76.9543 -3.024 80.0263 -3.024C83.0983 -3.024 85.4982 -1.68 86.7462 -0.0479965C88.2822 1.968 89.2422 4.272 89.2422 16.752Z"/>
            <path d="M170.137 29.232H153.049C151.993 33.072 149.881 36.528 144.313 36.528C141.241 36.528 138.937 35.28 137.689 33.648C136.153 31.632 135.097 29.232 135.097 16.752C135.097 4.272 136.153 1.872 137.689 -0.143995C138.937 -1.776 141.241 -3.024 144.313 -3.024C149.881 -3.024 151.993 0.432003 153.049 4.272H170.137C167.641 -10.8 157.177 -18 144.217 -18C136.249 -18 130.201 -15.312 125.209 -10.32C118.009 -3.12 118.297 6.48 118.297 16.752C118.297 27.024 118.009 36.624 125.209 43.824C130.201 48.816 136.249 51.504 144.217 51.504C157.177 51.504 167.641 44.304 170.137 29.232Z"/>
            <path d="M198.685 50.928V-17.424H181.885V50.928H198.685Z"/>
            <path d="M271.197 50.928L246.333 -17.424H233.373L208.509 50.928H226.077L229.437 40.752H250.461L253.629 50.928H271.197ZM246.045 26.736H234.141L240.285 8.496L246.045 26.736Z"/>
            <path d="M326.523 50.928V35.952H297.819V-17.424H281.019V50.928H326.523Z"/>
            <path d="M41.936 126.928V111.952H13.232V58.576H-3.568V126.928H41.936Z"/>
            <path d="M110.401 126.928L85.5365 58.576H72.5765L47.7125 126.928H65.2805L68.6405 116.752H89.6645L92.8325 126.928H110.401ZM85.2485 102.736H73.3445L79.4885 84.496L85.2485 102.736Z"/>
            <path d="M168.016 58.576H149.68L139.024 83.152L128.272 58.576H109.936L130.576 99.088V126.928H147.376V99.088L168.016 58.576Z"/>
            <path d="M224.317 126.928V111.952H194.653V99.952H219.997V84.976H194.653V73.552H224.317V58.576H177.853V126.928H224.317Z"/>
            <path d="M293.188 126.928L278.404 98.416C283.78 95.728 289.539 89.872 289.539 80.56C289.539 69.328 281.379 58.576 266.211 58.576H239.14V126.928H255.939V101.488H261.603L273.699 126.928H293.188ZM272.74 80.56C272.74 84.112 270.051 87.472 265.443 87.472H255.939V73.648H265.443C270.051 73.648 272.74 77.008 272.74 80.56Z"/>
        </mask>
        <path d="M42.32 30C42.32 23.664 40.88 18.576 37.232 15.024C34.352 12.144 29.936 10.224 23.792 9.36L15.536 8.208C13.136 7.92001 11.696 7.05601 10.832 6.19201C9.776 5.13601 9.488 3.888 9.488 3.024C9.488 0.0480022 11.888 -3.31199 17.744 -3.31199C20.72 -3.31199 26.384 -3.6 30.704 0.720005L41.264 -9.84C35.408 -15.696 28.016 -18 18.224 -18C2.672 -18 -6.736 -8.88 -6.736 3.6C-6.736 9.45601 -5.2 14.064 -2.032 17.328C1.04 20.496 5.648 22.512 11.696 23.376L19.952 24.528C22.16 24.816 23.6 25.488 24.464 26.352C25.424 27.408 25.808 28.752 25.808 30.384C25.808 34.32 22.64 36.528 16.016 36.528C10.544 36.528 4.304 35.28 0.752001 31.728L-10 42.48C-3.088 49.584 5.456 51.504 15.92 51.504C30.32 51.504 42.32 43.92 42.32 30Z" stroke="url(#paint0_linear_3448_25977)" stroke-width="2" mask="url(#path-1-outside-1_3448_25977)"/>
        <path d="M106.042 16.752C106.042 6.48 106.33 -3.12 99.1303 -10.32C94.1383 -15.312 88.3783 -18 80.0263 -18C71.6743 -18 65.9142 -15.312 60.9222 -10.32C53.7222 -3.12 54.0102 6.48 54.0102 16.752C54.0102 27.024 53.7222 36.624 60.9222 43.824C65.9142 48.816 71.6743 51.504 80.0263 51.504C88.3783 51.504 94.1383 48.816 99.1303 43.824C106.33 36.624 106.042 27.024 106.042 16.752ZM89.2422 16.752C89.2422 29.232 88.2822 31.44 86.7462 33.456C85.4982 35.088 83.0983 36.528 80.0263 36.528C76.9543 36.528 74.5543 35.088 73.3063 33.456C71.7703 31.44 70.8102 29.232 70.8102 16.752C70.8102 4.272 71.7703 1.968 73.3063 -0.0479965C74.5543 -1.68 76.9543 -3.024 80.0263 -3.024C83.0983 -3.024 85.4982 -1.68 86.7462 -0.0479965C88.2822 1.968 89.2422 4.272 89.2422 16.752Z" stroke="url(#paint1_linear_3448_25977)" stroke-width="2" mask="url(#path-1-outside-1_3448_25977)"/>
        <path d="M170.137 29.232H153.049C151.993 33.072 149.881 36.528 144.313 36.528C141.241 36.528 138.937 35.28 137.689 33.648C136.153 31.632 135.097 29.232 135.097 16.752C135.097 4.272 136.153 1.872 137.689 -0.143995C138.937 -1.776 141.241 -3.024 144.313 -3.024C149.881 -3.024 151.993 0.432003 153.049 4.272H170.137C167.641 -10.8 157.177 -18 144.217 -18C136.249 -18 130.201 -15.312 125.209 -10.32C118.009 -3.12 118.297 6.48 118.297 16.752C118.297 27.024 118.009 36.624 125.209 43.824C130.201 48.816 136.249 51.504 144.217 51.504C157.177 51.504 167.641 44.304 170.137 29.232Z" stroke="url(#paint2_linear_3448_25977)" stroke-width="2" mask="url(#path-1-outside-1_3448_25977)"/>
        <path d="M198.685 50.928V-17.424H181.885V50.928H198.685Z" stroke="url(#paint3_linear_3448_25977)" stroke-width="2" mask="url(#path-1-outside-1_3448_25977)"/>
        <path d="M271.197 50.928L246.333 -17.424H233.373L208.509 50.928H226.077L229.437 40.752H250.461L253.629 50.928H271.197ZM246.045 26.736H234.141L240.285 8.496L246.045 26.736Z" stroke="url(#paint4_linear_3448_25977)" stroke-width="2" mask="url(#path-1-outside-1_3448_25977)"/>
        <path d="M326.523 50.928V35.952H297.819V-17.424H281.019V50.928H326.523Z" stroke="url(#paint5_linear_3448_25977)" stroke-width="2" mask="url(#path-1-outside-1_3448_25977)"/>
        <path d="M41.936 126.928V111.952H13.232V58.576H-3.568V126.928H41.936Z" stroke="url(#paint6_linear_3448_25977)" stroke-width="2" mask="url(#path-1-outside-1_3448_25977)"/>
        <path d="M110.401 126.928L85.5365 58.576H72.5765L47.7125 126.928H65.2805L68.6405 116.752H89.6645L92.8325 126.928H110.401ZM85.2485 102.736H73.3445L79.4885 84.496L85.2485 102.736Z" stroke="url(#paint7_linear_3448_25977)" stroke-width="2" mask="url(#path-1-outside-1_3448_25977)"/>
        <path d="M168.016 58.576H149.68L139.024 83.152L128.272 58.576H109.936L130.576 99.088V126.928H147.376V99.088L168.016 58.576Z" stroke="url(#paint8_linear_3448_25977)" stroke-width="2" mask="url(#path-1-outside-1_3448_25977)"/>
        <path d="M224.317 126.928V111.952H194.653V99.952H219.997V84.976H194.653V73.552H224.317V58.576H177.853V126.928H224.317Z" stroke="url(#paint9_linear_3448_25977)" stroke-width="2" mask="url(#path-1-outside-1_3448_25977)"/>
        <path d="M293.188 126.928L278.404 98.416C283.78 95.728 289.539 89.872 289.539 80.56C289.539 69.328 281.379 58.576 266.211 58.576H239.14V126.928H255.939V101.488H261.603L273.699 126.928H293.188ZM272.74 80.56C272.74 84.112 270.051 87.472 265.443 87.472H255.939V73.648H265.443C270.051 73.648 272.74 77.008 272.74 80.56Z" stroke="url(#paint10_linear_3448_25977)" stroke-width="2" mask="url(#path-1-outside-1_3448_25977)"/>
    </g>
    <defs>
        <linearGradient id="paint0_linear_3448_25977" x1="158.52" y1="-58.572" x2="158.52" y2="202.5" gradientUnits="userSpaceOnUse">
            <stop stop-color="#C9A9CE"/>
            <stop offset="1" stop-color="#9652A7" stop-opacity="0"/>
        </linearGradient>
        <linearGradient id="paint1_linear_3448_25977" x1="158.52" y1="-58.572" x2="158.52" y2="202.5" gradientUnits="userSpaceOnUse">
            <stop stop-color="#C9A9CE"/>
            <stop offset="1" stop-color="#9652A7" stop-opacity="0"/>
        </linearGradient>
        <linearGradient id="paint2_linear_3448_25977" x1="158.52" y1="-58.572" x2="158.52" y2="202.5" gradientUnits="userSpaceOnUse">
            <stop stop-color="#C9A9CE"/>
            <stop offset="1" stop-color="#9652A7" stop-opacity="0"/>
        </linearGradient>
        <linearGradient id="paint3_linear_3448_25977" x1="158.52" y1="-58.572" x2="158.52" y2="202.5" gradientUnits="userSpaceOnUse">
            <stop stop-color="#C9A9CE"/>
            <stop offset="1" stop-color="#9652A7" stop-opacity="0"/>
        </linearGradient>
        <linearGradient id="paint4_linear_3448_25977" x1="158.52" y1="-58.572" x2="158.52" y2="202.5" gradientUnits="userSpaceOnUse">
            <stop stop-color="#C9A9CE"/>
            <stop offset="1" stop-color="#9652A7" stop-opacity="0"/>
        </linearGradient>
        <linearGradient id="paint5_linear_3448_25977" x1="158.52" y1="-58.572" x2="158.52" y2="202.5" gradientUnits="userSpaceOnUse">
            <stop stop-color="#C9A9CE"/>
            <stop offset="1" stop-color="#9652A7" stop-opacity="0"/>
        </linearGradient>
        <linearGradient id="paint6_linear_3448_25977" x1="158.52" y1="-58.572" x2="158.52" y2="202.5" gradientUnits="userSpaceOnUse">
            <stop stop-color="#C9A9CE"/>
            <stop offset="1" stop-color="#9652A7" stop-opacity="0"/>
        </linearGradient>
        <linearGradient id="paint7_linear_3448_25977" x1="158.52" y1="-58.572" x2="158.52" y2="202.5" gradientUnits="userSpaceOnUse">
            <stop stop-color="#C9A9CE"/>
            <stop offset="1" stop-color="#9652A7" stop-opacity="0"/>
        </linearGradient>
        <linearGradient id="paint8_linear_3448_25977" x1="158.52" y1="-58.572" x2="158.52" y2="202.5" gradientUnits="userSpaceOnUse">
            <stop stop-color="#C9A9CE"/>
            <stop offset="1" stop-color="#9652A7" stop-opacity="0"/>
        </linearGradient>
        <linearGradient id="paint9_linear_3448_25977" x1="158.52" y1="-58.572" x2="158.52" y2="202.5" gradientUnits="userSpaceOnUse">
            <stop stop-color="#C9A9CE"/>
            <stop offset="1" stop-color="#9652A7" stop-opacity="0"/>
        </linearGradient>
        <linearGradient id="paint10_linear_3448_25977" x1="158.52" y1="-58.572" x2="158.52" y2="202.5" gradientUnits="userSpaceOnUse">
            <stop stop-color="#C9A9CE"/>
            <stop offset="1" stop-color="#9652A7" stop-opacity="0"/>
        </linearGradient>
    </defs>
</svg>
